<?xml version="1.0" encoding="UTF-8"?><svg id="a" xmlns="http://www.w3.org/2000/svg" viewBox="0 0 500 500"><defs><style>.b{fill:#fff;fill-rule:evenodd;}.c{font-family:MyriadPro-Regular, 'Myriad Pro';font-size:12px;}.d{letter-spacing:0em;}.e{letter-spacing:-.01em;}.f{letter-spacing:-.01em;}</style></defs><rect width="500" height="500" rx="126.95" ry="126.95"/><text class="c" transform="translate(156.51 235.99)"><tspan class="e" x="0" y="0">L</tspan><tspan x="5.5" y="0">o</tspan><tspan class="f" x="12.08" y="0">r</tspan><tspan class="d" x="15.89" y="0">em ipsum</tspan></text><path class="b" d="M250,85.1l-36.7,4.1-34.86,12.2-31.25,19.67-26.11,26.11-19.67,31.25-12.2,34.86-4.1,36.7,4.1,36.7,12.2,34.86,19.67,31.25,26.11,26.11,31.25,19.67,34.86,12.2,36.7,4.1,10.21-.31,10.17-.93,10.09-1.56,9.97-2.18,9.82-2.8,9.62-3.41,9.39-4,4.38-1.46,4.59-.45,4.58.59,4.33,1.59,3.87,2.51,3.22,3.31,2.39,3.95,1.47,4.38.45,4.59-.59,4.58-1.59,4.33-2.51,3.87-3.31,3.22-3.95,2.39-11.74,5.01-12.03,4.26-12.27,3.51-12.47,2.74-12.61,1.96-12.71,1.17-12.76.39-45.88-5.12-43.57-15.24-39.07-24.59-32.64-32.64-24.59-39.07-15.24-43.57-5.12-45.88,5.12-45.88,15.24-43.57,24.59-39.07,32.64-32.64,39.07-24.59,43.57-15.24,45.88-5.12,45.88,5.12,43.57,15.24,39.07,24.59,32.64,32.64,24.59,39.07,15.24,43.57,5.12,45.88v.05s0,.06,0,.06v.05s0,.05,0,.05v.06s0,.06,0,.06v.06s-.81,14.86-.81,14.86l-1.98,14.75-3.34,14.5-4.9,14.04-6.64,13.3-8.48,12.21-10.27,10.74-7.59,6.06-8.2,5.22-8.7,4.32-9.1,3.39-9.4,2.45-9.6,1.5-9.7.52-9.91-.7-9.7-2.11-9.3-3.48-8.71-4.78-7.94-5.97-7.01-7.03-5.94-7.96-18.16,13.59-20.18,10.33-21.74,6.42-22.59,1.71-22.31-3.82-20.47-9.65-17.15-14.78-14.34-21.31-8.12-24.38-2.1-25.63,3.19-25.53,7.77-24.54,11.82-22.87,15.5-20.55,19.03-17.38,22-13.43,24.22-8.8,25.56-3.16,25.46,3.68,23.18,11.12,18.82,17.54,1.94-3.95,2.74-3.44,3.41-2.78,3.92-2,4.25-1.12,4.39-.19,4.33.75,4.27,1.75,3.77,2.66,3.08,3.44,2.24,4.03,1.29,4.43.27,4.61-.76,4.55-5.35,18.33-5.51,18.29-5.58,18.27-5.54,18.28-5.4,18.32-5.16,18.39-4.83,18.48,1.81,4.98,2.71,4.55,3.51,3.97,4.19,3.24,4.72,2.41,5.09,1.47,5.28.49,5.42-.29,5.37-.83,5.26-1.35,5.1-1.87,4.88-2.39,4.6-2.9,4.25-3.38,6.77-7.34,5.35-8.43,4.03-9.14,2.89-9.57,1.94-9.81,1.15-9.93.49-9.99-4.14-36.67-12.22-34.82-19.68-31.21-26.11-26.08-31.24-19.65-34.83-12.18-36.68-4.09ZM298.5,268.84l1.38-4.79,1.38-4.79,1.37-4.79,1.37-4.79,1.37-4.79,1.37-4.8,1.37-4.8,1.41-7.32.07-7.45-1.27-7.35-2.45-7.04-3.42-6.63-4.17-6.18-4.75-5.76-11.94-9.17-14.34-4.65-15.09-.28-14.7,3.48-13.65,6.5-12.29,8.81-10.85,10.55-10.47,13.54-8.27,14.98-5.75,16.12-2.89,16.86.41,17.1,4.3,16.54,8.95,14.51,11.94,9.17,14.34,4.65,15.09.28,14.7-3.48,13.65-6.5,12.29-8.81,10.85-10.55,3.24-3.66,3.14-3.74,3-3.86,2.79-4.01,2.53-4.18,2.2-4.36,1.8-4.54Z"/></svg>